<svg xmlns="http://www.w3.org/2000/svg" xmlns:xlink="http://www.w3.org/1999/xlink" width="500" zoomAndPan="magnify" viewBox="0 0 375 374.999991" height="500" preserveAspectRatio="xMidYMid meet" version="1.0"><defs><g/><clipPath id="id1"><path d="M 94 115 L 222.988281 115 L 222.988281 262.5 L 94 262.5 Z M 94 115 " clip-rule="nonzero"/></clipPath></defs><rect x="-37.5" width="450" fill="#ffffff" y="-37.499999" height="449.999989" fill-opacity="1"/><rect x="-37.5" width="450" fill="#ff5757" y="-37.499999" height="449.999989" fill-opacity="1"/><rect x="-37.5" width="450" fill="#ffffff" y="-37.499999" height="449.999989" fill-opacity="1"/><rect x="-37.5" width="450" fill="#ff5757" y="-37.499999" height="449.999989" fill-opacity="1"/><g clip-path="url(#id1)"><path fill="#000000" d="M 213.222656 124.238281 C 207.414062 118.691406 199.628906 115.597656 191.605469 115.625 C 183.320312 115.65625 175.53125 118.90625 169.671875 124.777344 L 158.492188 135.976562 L 147.597656 125.058594 C 135.457031 112.894531 115.691406 112.511719 103.433594 124.5625 C 91.054688 136.722656 90.980469 156.714844 103.214844 168.96875 L 162.398438 228.273438 C 169.15625 235.042969 169.46875 246.0625 162.847656 252.960938 C 156.070312 260.015625 144.820312 260.097656 137.9375 253.203125 L 123.277344 238.515625 C 122.660156 237.894531 122.597656 236.914062 123.128906 236.214844 C 125.292969 233.363281 126.492188 229.734375 126.222656 225.828125 C 125.695312 218.117188 119.402344 211.914062 111.695312 211.511719 C 102.769531 211.046875 95.371094 218.246094 95.492188 227.113281 C 95.597656 235.328125 102.28125 242.109375 110.476562 242.316406 C 113.121094 242.382812 115.617188 241.777344 117.816406 240.660156 C 118.480469 240.320312 119.292969 240.464844 119.820312 240.992188 L 134.964844 256.171875 C 139.183594 260.402344 144.726562 262.511719 150.265625 262.511719 C 155.804688 262.511719 161.347656 260.398438 165.5625 256.171875 C 174 247.71875 174 233.964844 165.5625 225.511719 L 106.179688 166 C 95.65625 155.453125 95.65625 138.296875 106.179688 127.75 C 116.703125 117.203125 133.828125 117.203125 144.351562 127.75 L 156.957031 140.382812 C 157.378906 140.804688 157.9375 141.003906 158.492188 140.992188 C 159.050781 141.003906 159.609375 140.804688 160.03125 140.382812 L 172.386719 128 C 177.511719 122.867188 184.425781 119.84375 191.671875 119.828125 C 198.902344 119.816406 205.703125 122.628906 210.8125 127.75 C 215.917969 132.871094 218.726562 139.675781 218.714844 146.917969 C 218.707031 154.179688 215.683594 161.117188 210.558594 166.253906 L 206.566406 170.253906 C 206.238281 170.582031 205.792969 170.769531 205.328125 170.769531 L 193.425781 170.769531 C 192.765625 170.769531 192.15625 170.394531 191.863281 169.804688 L 186.113281 158.28125 C 185.46875 156.988281 183.632812 156.988281 182.992188 158.28125 L 173.109375 178.066406 C 172.464844 179.359375 170.628906 179.359375 169.984375 178.066406 L 166.613281 171.300781 C 165.96875 170.011719 164.132812 170.011719 163.488281 171.300781 L 160.113281 178.0625 C 159.472656 179.355469 157.632812 179.355469 156.992188 178.0625 L 147.117188 158.273438 C 146.476562 156.984375 144.636719 156.984375 143.996094 158.273438 L 138.246094 169.796875 C 137.949219 170.386719 137.34375 170.761719 136.683594 170.761719 L 126.148438 170.761719 C 125 170.761719 124 171.648438 123.964844 172.800781 C 123.929688 173.988281 124.882812 174.960938 126.0625 174.960938 L 139.277344 174.960938 C 139.9375 174.960938 140.542969 174.589844 140.835938 173.996094 L 143.996094 167.664062 C 144.636719 166.375 146.476562 166.375 147.117188 167.664062 L 156.992188 187.453125 C 157.632812 188.746094 159.472656 188.746094 160.113281 187.453125 L 163.488281 180.691406 C 164.132812 179.402344 165.96875 179.402344 166.613281 180.691406 L 169.984375 187.457031 C 170.628906 188.75 172.464844 188.75 173.109375 187.457031 L 182.984375 167.667969 C 183.625 166.378906 185.464844 166.375 186.105469 167.667969 L 189.265625 174 C 189.5625 174.589844 190.167969 174.964844 190.828125 174.964844 L 206.914062 174.964844 C 206.914062 174.964844 206.914062 174.964844 206.917969 174.964844 L 206.921875 174.964844 C 207.050781 174.964844 207.175781 174.953125 207.296875 174.929688 C 207.304688 174.929688 207.316406 174.925781 207.324219 174.925781 C 207.445312 174.902344 207.566406 174.867188 207.683594 174.824219 C 207.691406 174.820312 207.703125 174.816406 207.714844 174.8125 C 207.828125 174.761719 207.941406 174.703125 208.046875 174.636719 C 208.054688 174.628906 208.066406 174.625 208.078125 174.621094 C 208.1875 174.542969 208.292969 174.457031 208.390625 174.363281 C 208.394531 174.359375 208.394531 174.359375 208.398438 174.355469 L 213.46875 169.273438 C 219.472656 163.261719 222.972656 155.117188 222.910156 146.613281 C 222.839844 138.105469 219.398438 130.136719 213.222656 124.238281 Z M 99.683594 226.90625 C 99.683594 220.71875 104.707031 215.691406 110.875 215.691406 C 117.042969 215.691406 122.066406 220.722656 122.066406 226.90625 C 122.066406 233.089844 117.042969 238.117188 110.875 238.117188 C 104.707031 238.117188 99.683594 233.089844 99.683594 226.90625 Z M 99.683594 226.90625 " fill-opacity="1" fill-rule="nonzero"/></g><g fill="#000000" fill-opacity="1"><g transform="translate(182.272566, 245.681703)"><g><path d="M 16.65625 -17.359375 L 10.171875 -17.359375 L 10.171875 0 L 6.71875 0 L 6.71875 -17.359375 L 0.265625 -17.359375 L 0.265625 -20.46875 L 16.65625 -20.46875 Z M 16.65625 -17.359375 "/></g></g></g><g fill="#000000" fill-opacity="1"><g transform="translate(199.194773, 245.681703)"><g><path d="M 8.96875 -7.75 L 1.78125 -7.75 L 1.78125 -10.0625 L 8.96875 -10.0625 Z M 8.96875 -7.75 "/></g></g></g><g fill="#000000" fill-opacity="1"><g transform="translate(209.950158, 245.681703)"><g><path d="M 6.140625 -3.125 L 15 -3.125 L 15 0 L 2.6875 0 L 2.6875 -20.46875 L 6.140625 -20.46875 Z M 6.140625 -3.125 "/></g></g></g><g fill="#000000" fill-opacity="1"><g transform="translate(225.557163, 245.681703)"><g><path d="M 15.90625 -4.625 L 5.578125 -4.625 L 3.625 0 L 0.03125 0 L 9.0625 -20.46875 L 12.59375 -20.46875 L 21.546875 0 L 17.859375 0 Z M 14.59375 -7.6875 L 10.734375 -16.78125 L 6.875 -7.6875 Z M 14.59375 -7.6875 "/></g></g></g><g fill="#000000" fill-opacity="1"><g transform="translate(247.126391, 245.681703)"><g><path d="M 2.6875 -20.46875 L 11.578125 -20.46875 C 13.703125 -20.46875 15.378906 -20.015625 16.609375 -19.109375 C 17.835938 -18.203125 18.453125 -16.945312 18.453125 -15.34375 C 18.453125 -14.195312 18.128906 -13.21875 17.484375 -12.40625 C 16.835938 -11.601562 15.957031 -11.0625 14.84375 -10.78125 C 16.207031 -10.550781 17.28125 -9.976562 18.0625 -9.0625 C 18.84375 -8.144531 19.234375 -6.992188 19.234375 -5.609375 C 19.234375 -3.859375 18.570312 -2.484375 17.25 -1.484375 C 15.925781 -0.492188 14.101562 0 11.78125 0 L 2.6875 0 Z M 6.140625 -17.390625 L 6.140625 -11.984375 L 11.40625 -11.984375 C 12.488281 -11.984375 13.34375 -12.226562 13.96875 -12.71875 C 14.59375 -13.207031 14.90625 -13.878906 14.90625 -14.734375 C 14.90625 -15.585938 14.597656 -16.242188 13.984375 -16.703125 C 13.367188 -17.160156 12.507812 -17.390625 11.40625 -17.390625 Z M 6.140625 -8.953125 L 6.140625 -3.0625 L 11.40625 -3.0625 C 12.769531 -3.0625 13.828125 -3.320312 14.578125 -3.84375 C 15.328125 -4.363281 15.703125 -5.097656 15.703125 -6.046875 C 15.703125 -6.941406 15.320312 -7.648438 14.5625 -8.171875 C 13.800781 -8.691406 12.75 -8.953125 11.40625 -8.953125 Z M 6.140625 -8.953125 "/></g></g></g></svg>